<svg width="286" height="242" viewBox="0 0 286 242" xmlns="http://www.w3.org/2000/svg"><path d="M140.464 175.718l-67.482 31.467-12.735-24.56-33.553 15.645-.882 30.91L.31 241.074l8.054-137.11 76.434-35.641 8.28 17.754-44.989 20.979 13.582 26.18 37.766-17.61 8.28 17.754-37.014 17.26 15.025 29.08 46.493-21.68 8.244 17.679zm-113.031-.415l23.396-10.91-21.801-42.04-1.595 52.95zm257.85-67.115L217.8 139.655l-12.735-24.56-33.553 15.645-.882 30.91-25.503 11.893 8.054-137.11L229.616.793l8.28 17.754-44.989 20.978 13.582 26.181 37.766-17.61 8.279 17.754-37.013 17.26 15.025 29.08 46.493-21.68 8.243 17.679zm-113.031-.415l23.396-10.91-21.801-42.04-1.595 52.95z" fill="#FFF" fill-rule="evenodd" opacity=".1"/></svg>
